<?xml version="1.0" encoding="UTF-8"?>
<svg version="1.1" xmlns="http://www.w3.org/2000/svg" viewBox="0 0 32 32">
<path d="M0 0 C1.46566406 -0.00386719 1.46566406 -0.00386719 2.9609375 -0.0078125 C3.98445312 -0.00007812 5.00796875 0.00765625 6.0625 0.015625 C7.08601563 0.00789062 8.10953125 0.00015625 9.1640625 -0.0078125 C10.14117188 -0.00523438 11.11828125 -0.00265625 12.125 0 C13.02347656 0.00225586 13.92195313 0.00451172 14.84765625 0.00683594 C17.0625 0.265625 17.0625 0.265625 19.0625 2.265625 C19.2578125 5.0859375 19.2578125 5.0859375 19.1875 8.390625 C19.16945313 9.48632812 19.15140625 10.58203125 19.1328125 11.7109375 C19.10960938 12.55398437 19.08640625 13.39703125 19.0625 14.265625 C18.4025 14.265625 17.7425 14.265625 17.0625 14.265625 C16.7325 10.635625 16.4025 7.005625 16.0625 3.265625 C9.4625 3.265625 2.8625 3.265625 -3.9375 3.265625 C-3.9375 8.215625 -3.9375 13.165625 -3.9375 18.265625 C-1.9575 18.595625 0.0225 18.925625 2.0625 19.265625 C2.0625 19.925625 2.0625 20.585625 2.0625 21.265625 C3.7125 20.605625 5.3625 19.945625 7.0625 19.265625 C6.75 21.140625 6.75 21.140625 6.0625 23.265625 C3.0625 25.265625 3.0625 25.265625 -0.9375 25.265625 C-0.9375 23.945625 -0.9375 22.625625 -0.9375 21.265625 C-1.741875 21.12125 -2.54625 20.976875 -3.375 20.828125 C-5.9375 20.265625 -5.9375 20.265625 -6.9375 19.265625 C-7.06413091 16.44146118 -7.12270548 13.65267707 -7.125 10.828125 C-7.13724609 10.03857422 -7.14949219 9.24902344 -7.16210938 8.43554688 C-7.16737279 6.37755065 -7.05956285 4.32000491 -6.9375 2.265625 C-4.40695663 -0.26491837 -3.50201118 0.00879271 0 0 Z " fill="#1D2EB6" transform="translate(9.9375,3.734375)"/>
<path d="M0 0 C0.99 0 1.98 0 3 0 C3 1.32 3 2.64 3 4 C4.32 4 5.64 4 7 4 C6.67 4.99 6.34 5.98 6 7 C5.01 7 4.02 7 3 7 C2.67 8.32 2.34 9.64 2 11 C1.34 11 0.68 11 0 11 C0 9.68 0 8.36 0 7 C-1.32 7 -2.64 7 -4 7 C-4 6.01 -4 5.02 -4 4 C-2.68 4 -1.36 4 0 4 C0 2.68 0 1.36 0 0 Z " fill="#1D2EB6" transform="translate(24,20)"/>
<path d="M0 0 C3.63 0 7.26 0 11 0 C11 0.99 11 1.98 11 3 C7.7 3 4.4 3 1 3 C0.67 2.01 0.34 1.02 0 0 Z " fill="#1D2EB6" transform="translate(9,16)"/>
<path d="M0 0 C4.62 0 9.24 0 14 0 C14 0.66 14 1.32 14 2 C9.38 2 4.76 2 0 2 C0 1.34 0 0.68 0 0 Z " fill="#1D2EB6" transform="translate(9,11)"/>
</svg>
