<svg viewBox="0 0 32 32" fill="none" xmlns="http://www.w3.org/2000/svg">
<path d="M27.7857 13.9286C27.7857 13.7714 27.6572 13.6429 27.5 13.6429H25.3572C25.2 13.6429 25.0714 13.7714 25.0714 13.9286C25.0714 18.9393 21.0107 23 16 23C10.9893 23 6.92858 18.9393 6.92858 13.9286C6.92858 13.7714 6.80001 13.6429 6.64287 13.6429H4.50001C4.34287 13.6429 4.21429 13.7714 4.21429 13.9286C4.21429 19.9536 8.73572 24.925 14.5714 25.6286V29.2857H9.38215C8.89287 29.2857 8.50001 29.7964 8.50001 30.4286V31.7143C8.50001 31.8714 8.60001 32 8.72144 32H23.2786C23.4 32 23.5 31.8714 23.5 31.7143V30.4286C23.5 29.7964 23.1072 29.2857 22.6179 29.2857H17.2857V25.6464C23.1893 25.0036 27.7857 20.0036 27.7857 13.9286ZM16 20C19.3536 20 22.0714 17.3143 22.0714 14V6C22.0714 2.68571 19.3536 0 16 0C12.6464 0 9.92858 2.68571 9.92858 6V14C9.92858 17.3143 12.6464 20 16 20ZM12.6429 6C12.6429 4.19286 14.1393 2.71429 16 2.71429C17.8607 2.71429 19.3572 4.19286 19.3572 6V14C19.3572 15.8071 17.8607 17.2857 16 17.2857C14.1393 17.2857 12.6429 15.8071 12.6429 14V6Z" fill="#1D2EB6"/>
</svg>
