<svg viewBox="0 0 32 32" xmlns="http://www.w3.org/2000/svg">
<path d="M30.2 28.2322L20.925 18.9572C22.3643 17.0964 23.1429 14.8214 23.1429 12.4286C23.1429 9.56429 22.025 6.87858 20.0036 4.85358C17.9822 2.82858 15.2893 1.71429 12.4286 1.71429C9.56787 1.71429 6.87501 2.83215 4.85358 4.85358C2.82858 6.87501 1.71429 9.56429 1.71429 12.4286C1.71429 15.2893 2.83215 17.9822 4.85358 20.0036C6.87501 22.0286 9.56429 23.1429 12.4286 23.1429C14.8214 23.1429 17.0929 22.3643 18.9536 20.9286L28.2286 30.2C28.2558 30.2272 28.2881 30.2488 28.3236 30.2635C28.3592 30.2783 28.3973 30.2858 28.4357 30.2858C28.4742 30.2858 28.5123 30.2783 28.5478 30.2635C28.5834 30.2488 28.6157 30.2272 28.6429 30.2L30.2 28.6464C30.2272 28.6192 30.2488 28.587 30.2635 28.5514C30.2783 28.5159 30.2858 28.4778 30.2858 28.4393C30.2858 28.4008 30.2783 28.3627 30.2635 28.3272C30.2488 28.2916 30.2272 28.2593 30.2 28.2322ZM18.0857 18.0857C16.5714 19.5964 14.5643 20.4286 12.4286 20.4286C10.2929 20.4286 8.28572 19.5964 6.77144 18.0857C5.26072 16.5714 4.42858 14.5643 4.42858 12.4286C4.42858 10.2929 5.26072 8.28215 6.77144 6.77144C8.28572 5.26072 10.2929 4.42858 12.4286 4.42858C14.5643 4.42858 16.575 5.25715 18.0857 6.77144C19.5964 8.28572 20.4286 10.2929 20.4286 12.4286C20.4286 14.5643 19.5964 16.575 18.0857 18.0857Z" fill="#1D2EB6"/>
</svg>
