<svg viewBox="0 0 32 32" fill="none" xmlns="http://www.w3.org/2000/svg">
<path d="M29.5179 24.6893L16.925 7.32858C16.4679 6.7 15.5322 6.7 15.0786 7.32858L2.48215 24.6893C2.45115 24.732 2.43258 24.7824 2.4285 24.835C2.42442 24.8876 2.43498 24.9404 2.45902 24.9873C2.48306 25.0343 2.51963 25.0737 2.56469 25.1011C2.60975 25.1286 2.66153 25.143 2.71429 25.1429H5.39287C5.57501 25.1429 5.74644 25.0536 5.85358 24.9071L16 10.9214L26.1464 24.9071C26.2536 25.0536 26.425 25.1429 26.6072 25.1429H29.2857C29.5179 25.1429 29.6536 24.8786 29.5179 24.6893Z"  fill="#1D2EB6"/>
</svg>
