<svg viewBox="0 0 32 32" fill="none" xmlns="http://www.w3.org/2000/svg">
<g clip-path="url(#clip0_346_83)">
<path d="M14.2857 16C14.2857 16.4547 14.4663 16.8907 14.7878 17.2122C15.1093 17.5337 15.5453 17.7143 16 17.7143C16.4546 17.7143 16.8907 17.5337 17.2122 17.2122C17.5337 16.8907 17.7143 16.4547 17.7143 16C17.7143 15.5453 17.5337 15.1093 17.2122 14.7878C16.8907 14.4663 16.4546 14.2857 16 14.2857C15.5453 14.2857 15.1093 14.4663 14.7878 14.7878C14.4663 15.1093 14.2857 15.5453 14.2857 16ZM21.4286 16C21.4286 16.4547 21.6092 16.8907 21.9307 17.2122C22.2522 17.5337 22.6882 17.7143 23.1428 17.7143C23.5975 17.7143 24.0335 17.5337 24.355 17.2122C24.6765 16.8907 24.8571 16.4547 24.8571 16C24.8571 15.5453 24.6765 15.1093 24.355 14.7878C24.0335 14.4663 23.5975 14.2857 23.1428 14.2857C22.6882 14.2857 22.2522 14.4663 21.9307 14.7878C21.6092 15.1093 21.4286 15.5453 21.4286 16ZM7.14285 16C7.14285 16.4547 7.32346 16.8907 7.64495 17.2122C7.96644 17.5337 8.40248 17.7143 8.85713 17.7143C9.31179 17.7143 9.74783 17.5337 10.0693 17.2122C10.3908 16.8907 10.5714 16.4547 10.5714 16C10.5714 15.5453 10.3908 15.1093 10.0693 14.7878C9.74783 14.4663 9.31179 14.2857 8.85713 14.2857C8.40248 14.2857 7.96644 14.4663 7.64495 14.7878C7.32346 15.1093 7.14285 15.5453 7.14285 16ZM30.7571 9.8C29.95 7.88214 28.7929 6.16071 27.3179 4.68214C25.8532 3.21213 24.1144 2.04365 22.2 1.24286C20.2357 0.417857 18.15 0 16 0H15.9286C13.7643 0.0107143 11.6678 0.439286 9.69642 1.28214C7.79841 2.09115 6.07593 3.2617 4.62499 4.72857C3.16428 6.20357 2.01785 7.91786 1.22499 9.82857C0.403561 11.8071 -0.0107253 13.9107 -1.10062e-05 16.075C0.0121077 18.5553 0.598888 20.999 1.71427 23.2143V28.6429C1.71427 29.0786 1.88736 29.4964 2.19546 29.8045C2.50355 30.1126 2.92142 30.2857 3.35713 30.2857H8.78928C11.0046 31.4011 13.4483 31.9879 15.9286 32H16.0036C18.1428 32 20.2178 31.5857 22.1714 30.775C24.0762 29.9838 25.8084 28.8289 27.2714 27.375C28.7464 25.9143 29.9071 24.2071 30.7178 22.3036C31.5607 20.3321 31.9893 18.2357 32 16.0714C32.0107 13.8964 31.5893 11.7857 30.7571 9.8ZM25.3607 25.4429C22.8571 27.9214 19.5357 29.2857 16 29.2857H15.9393C13.7857 29.275 11.6464 28.7393 9.75713 27.7321L9.45713 27.5714H4.42856V22.5429L4.26785 22.2429C3.2607 20.3536 2.72499 18.2143 2.71428 16.0607C2.69999 12.5 4.0607 9.15714 6.55713 6.63929C9.04999 4.12143 12.3821 2.72857 15.9428 2.71429H16.0036C17.7893 2.71429 19.5214 3.06071 21.1536 3.74643C22.7464 4.41429 24.175 5.375 25.4036 6.60357C26.6286 7.82857 27.5928 9.26071 28.2607 10.8536C28.9536 12.5036 29.3 14.2536 29.2929 16.0607C29.2714 19.6179 27.875 22.95 25.3607 25.4429Z" fill="#1D2EB6"/>
</g>
<defs>
<clipPath id="clip0_346_83">
<rect width="32" height="32" fill="white"/>
</clipPath>
</defs>
</svg>
